<svg width="70" height="103" viewBox="0 0 70 103" fill="none" xmlns="http://www.w3.org/2000/svg">
<path d="M43.884 20.547V21.0492C43.884 21.391 43.884 21.1538 43.884 21.0492C43.8386 21.3158 43.7757 21.5791 43.6957 21.8374C43.6538 21.9839 43.598 22.1373 43.5422 22.2838C43.5422 22.2071 43.6817 22.0187 43.5422 22.2838C43.4027 22.5489 43.2353 22.8279 43.0609 23.0929C42.7889 23.4975 43.1934 22.9534 42.9981 23.1697C42.9144 23.2673 42.8238 23.365 42.7331 23.4556C42.6424 23.5463 42.5866 23.6021 42.5099 23.6788C42.4331 23.7556 42.0914 24.0276 42.3843 23.8044C42.1766 23.9622 41.9574 24.1044 41.7286 24.2299L41.4566 24.3764C41.2683 24.4601 41.2613 24.467 41.4566 24.3764C41.3851 24.4115 41.3104 24.4395 41.2334 24.4601C40.9817 24.5459 40.7256 24.6181 40.4661 24.6763C40.3824 24.6763 40.0267 24.7461 40.3685 24.6763C40.229 24.6763 40.0895 24.6763 39.95 24.7112C39.6735 24.7285 39.3963 24.7285 39.1199 24.7112C38.813 24.7112 39.5175 24.8088 39.0223 24.7112L38.5479 24.5996C38.3945 24.5577 38.248 24.5019 38.0946 24.4531C37.9411 24.4043 37.7946 24.3136 38.0946 24.4531C37.8547 24.3416 37.6218 24.2158 37.397 24.0764C37.2854 24.0067 37.1808 23.93 37.0762 23.8532C36.839 23.6858 37.3482 24.1253 36.9994 23.7905C36.7762 23.5672 36.553 23.358 36.3507 23.0929C36.5461 23.3161 36.3507 23.0929 36.3507 23.0929L36.0927 22.7023L35.9392 22.4303C35.9392 22.3884 35.709 21.9211 35.8485 22.2699C35.7494 22.0225 35.6678 21.7684 35.6044 21.5096C35.6044 21.4049 35.5625 21.3003 35.5346 21.1957C35.5067 21.091 35.5346 20.9864 35.5346 21.1957C35.5275 21.1144 35.5275 21.0328 35.5346 20.9515C35.5173 20.7031 35.5173 20.4537 35.5346 20.2052C35.5346 20.1564 35.6114 19.6262 35.5346 20.0099L35.5974 19.696C35.6571 19.4362 35.7316 19.18 35.8206 18.9287C35.9741 18.4683 35.6602 19.1868 35.8974 18.7613C35.9741 18.6288 36.0438 18.4823 36.1206 18.3498L36.3368 18.0219C36.3787 17.9522 36.6019 17.6941 36.3926 17.9382C36.5607 17.7398 36.74 17.5511 36.9297 17.3732C36.9297 17.3732 37.2994 17.0524 37.1041 17.2058C36.9088 17.3593 37.3203 17.0594 37.3064 17.0663C37.5689 16.8927 37.844 16.7388 38.1294 16.606C38.0597 16.6408 37.8295 16.7036 38.1294 16.606C38.2829 16.5571 38.4294 16.5013 38.5828 16.4595L38.8967 16.3828C38.8967 16.3828 39.3989 16.2921 39.1408 16.327C38.8828 16.3618 39.4198 16.327 39.4059 16.327H39.8174H40.2359C40.6475 16.327 40.0616 16.2642 40.4173 16.327C40.773 16.3897 41.0381 16.4804 41.345 16.585C41.8193 16.7455 41.1706 16.4944 41.4357 16.6269L41.924 16.885L42.189 17.0524L42.4401 17.2337C42.2936 17.1221 42.3006 17.1291 42.4401 17.2337C42.5796 17.3384 42.8028 17.6034 42.9912 17.7848C43.326 18.1266 42.8307 17.5197 43.1028 17.9243C43.1934 18.0498 43.2771 18.1824 43.3609 18.3149C43.4446 18.4474 43.5073 18.5939 43.5841 18.7264C43.7584 19.0403 43.5352 18.5172 43.6608 18.8938C43.7863 19.2705 43.8421 19.5007 43.9189 19.8146C43.9189 19.8773 43.9677 20.1564 43.9189 19.8146C43.9189 20.0378 43.9189 20.261 43.9607 20.4772C43.9607 20.9397 44.1444 21.3832 44.4715 21.7103C44.7985 22.0373 45.242 22.221 45.7045 22.221C46.167 22.221 46.6106 22.0373 46.9376 21.7103C47.2646 21.3832 47.4483 20.9397 47.4483 20.4772C47.4116 18.8901 46.8956 17.3512 45.9682 16.0627C45.0407 14.7742 43.7452 13.7965 42.2518 13.2579C40.773 12.7285 39.1681 12.6619 37.6505 13.0668C36.1328 13.4717 34.7745 14.3291 33.756 15.5248C32.95 16.4724 32.3847 17.6006 32.108 18.8134C31.8314 20.0263 31.8516 21.288 32.167 22.4913C32.4824 23.6947 33.0835 24.8041 33.9195 25.7254C34.7554 26.6467 35.8014 27.3526 36.9685 27.7831C38.1356 28.2136 39.3895 28.356 40.6234 28.1982C41.8574 28.0404 43.035 27.5871 44.0562 26.8767C45.0775 26.1664 45.9121 25.22 46.4893 24.118C47.0665 23.016 47.3692 21.791 47.3716 20.547C47.3716 20.0845 47.1879 19.6409 46.8609 19.3139C46.5338 18.9869 46.0903 18.8032 45.6278 18.8032C45.1653 18.8032 44.7218 18.9869 44.3947 19.3139C44.0677 19.6409 43.884 20.0845 43.884 20.547Z" fill="#FFFEFE" fill-opacity="0.87"/>
<path d="M35.4855 19.0681L35.4088 3.93186V1.76257L33.651 3.49242C34.6131 3.46429 35.5759 3.50625 36.5318 3.61798L37.1805 3.68773L37.5641 3.73656C37.1666 3.68773 37.313 3.6947 37.5641 3.73656C38.1152 3.82026 38.6662 3.91791 39.2103 4.02254C40.4946 4.28488 41.7618 4.62497 43.0048 5.04092C43.3396 5.15253 43.7024 5.27111 44.0023 5.39666L44.4417 5.58499L44.7068 5.6966C45.1323 5.85703 44.4487 5.57802 44.7765 5.6966C45.4741 5.99653 46.1716 6.32437 46.8691 6.68708C47.5666 7.04979 48.2642 7.4683 48.9617 7.91472C49.2872 8.13328 49.608 8.36578 49.9243 8.61224C50.001 8.66107 50.559 9.09353 50.2102 8.8215C50.3916 8.95403 50.566 9.10051 50.7404 9.24001C51.4181 9.80029 52.0654 10.3964 52.6795 11.0257C53.0003 11.3535 53.3072 11.6883 53.6072 12.0371L54.0396 12.5393L54.228 12.7695L54.4163 13.0066C54.3117 12.8741 54.2977 12.8532 54.3675 12.9508C55.6178 14.6113 56.6712 16.4114 57.5063 18.3148C57.6668 18.6845 57.5831 18.4822 57.7365 18.8728C57.89 19.2634 57.9807 19.4936 58.0923 19.8005C58.3155 20.4213 58.5178 21.0421 58.6991 21.6699C59.1053 23.0562 59.4291 24.4653 59.6687 25.8899C60.1867 29.2394 60.362 32.6329 60.1918 36.0179C60.1011 38.264 63.5887 38.257 63.6794 36.0179C64.077 25.9038 62.0333 14.9597 54.3396 7.77521C49.6592 3.4436 43.6396 1.02319 37.4107 0.241965C36.1663 0.0581606 34.9087 -0.0211689 33.651 0.00480731C33.1913 0.0137359 32.753 0.200324 32.4279 0.525436C32.1027 0.850548 31.9162 1.28892 31.9072 1.74861L31.984 16.8779V19.0542C31.984 21.2932 35.4716 21.3002 35.4716 19.0542L35.4855 19.0681Z" fill="#FFFEFE" fill-opacity="0.87"/>
<path d="M61.88 34.2681C53.3772 34.1356 44.8744 33.9054 36.3786 33.8775C32.5843 33.7852 28.7956 34.2195 25.1206 35.1679C21.8648 36.0795 18.7603 37.4637 15.9063 39.2763C12.6634 41.3358 9.79315 43.9302 7.41745 46.9491C7.10145 47.2811 6.9252 47.7219 6.9252 48.1802C6.9252 48.6385 7.10145 49.0793 7.41745 49.4113C7.74432 49.7372 8.18704 49.9201 8.64858 49.9201C9.11012 49.9201 9.55284 49.7372 9.87971 49.4113C13.8047 44.3801 19.1698 40.6646 25.2601 38.7602C28.6478 37.7815 32.1622 37.3113 35.6881 37.3651C39.7895 37.3651 43.8839 37.4767 47.9854 37.5395L61.88 37.7557C64.1191 37.7906 64.1261 34.303 61.88 34.2681Z" fill="#FFFEFE" fill-opacity="0.87"/>
<path d="M7.59181 46.893C2.90646 52.7735 0.24696 60.0107 0.00973959 67.5257C-0.162575 74.7099 1.95543 81.7626 6.05726 87.6632C8.33825 90.9592 11.1697 93.8379 14.4275 96.173C14.6254 96.2884 14.844 96.3637 15.071 96.3947C15.298 96.4256 15.5288 96.4115 15.7503 96.3532C15.9718 96.2949 16.1797 96.1935 16.362 96.0549C16.5444 95.9163 16.6976 95.7431 16.8131 95.5452C16.9285 95.3474 17.0038 95.1287 17.0347 94.9018C17.0656 94.6748 17.0515 94.444 16.9932 94.2225C16.9349 94.0009 16.8336 93.7931 16.695 93.6107C16.5563 93.4284 16.3832 93.2751 16.1853 93.1597C10.9726 89.3914 7.07991 84.0763 5.06018 77.9695C3.04044 71.8627 2.99638 65.2748 4.93425 59.1415C6.03101 55.6014 7.76618 52.2918 10.0541 49.3762C10.3705 49.043 10.547 48.6011 10.547 48.1416C10.547 47.6821 10.3705 47.2401 10.0541 46.907C9.72631 46.5828 9.28392 46.401 8.82294 46.401C8.36196 46.401 7.91957 46.5828 7.59181 46.907V46.893Z" fill="#FFFEFE" fill-opacity="0.87"/>
<path d="M14.4482 96.1723C20.0485 99.936 26.516 102.209 33.2395 102.778C39.7627 103.492 46.359 102.477 52.3655 99.8343C58.067 97.2997 62.8102 93.0109 65.9045 87.5928C68.8299 82.3212 70.1694 76.3164 69.7618 70.3012C69.3363 63.8003 67.0693 57.1459 62.6401 52.2772C60.4905 49.9381 57.8583 48.094 54.9256 46.8728C51.9929 45.6515 48.8298 45.0822 45.6554 45.2043C42.329 45.3611 39.0847 46.2898 36.1792 47.9169C33.2737 49.544 30.7867 51.8248 28.9148 54.579C27.0854 57.3037 25.9614 60.4401 25.6436 63.7066C25.3259 66.9731 25.8243 70.2673 27.0943 73.2936C28.3282 76.0284 30.2571 78.3922 32.6888 80.1496C35.1205 81.907 37.9702 82.9966 40.9541 83.31C44.1668 83.6369 47.3962 82.8763 50.1254 81.1501C52.8545 79.4238 54.9254 76.8317 56.0066 73.7888C56.5066 72.2506 56.7125 70.6321 56.6135 69.0177C56.6028 68.5586 56.4157 68.1212 56.0909 67.7965C55.7662 67.4717 55.3288 67.2846 54.8697 67.2739C54.4083 67.2776 53.9669 67.4625 53.6406 67.7887C53.3144 68.115 53.1295 68.5564 53.1259 69.0177C53.4816 74.5979 49.143 79.1667 43.7163 79.8224C38.8336 80.4153 33.8324 77.7298 31.2306 73.6702C28.2801 69.0456 28.3638 62.8586 30.8888 58.0666C32.2197 55.5866 34.1187 53.4569 36.4307 51.8517C38.7427 50.2465 41.4018 49.2116 44.1906 48.8314C46.8871 48.4899 49.6258 48.7507 52.2093 49.595C54.7929 50.4393 57.1571 51.8461 59.1315 53.7141C63.219 57.5644 65.486 63.2423 66.1486 68.7457C66.8066 73.9085 66.0295 79.1528 63.9026 83.9029C61.637 88.7872 57.9006 92.8407 53.2165 95.4957C43.2559 101.188 30.003 100.65 19.9586 95.4329C18.6613 94.7545 17.4079 93.995 16.206 93.159C15.8051 92.9314 15.3311 92.8696 14.8853 92.9869C14.4395 93.1042 14.0573 93.3913 13.8204 93.7868C13.5981 94.1888 13.5393 94.6611 13.6562 95.1054C13.7731 95.5497 14.0568 95.9318 14.4482 96.1723Z" fill="#FFFEFE" fill-opacity="0.87"/>
</svg>
